<?xml version="1.0" standalone="no"?>
<!DOCTYPE svg PUBLIC "-//W3C//DTD SVG 20010904//EN"
 "http://www.w3.org/TR/2001/REC-SVG-20010904/DTD/svg10.dtd">
<svg version="1.0" xmlns="http://www.w3.org/2000/svg"
 width="1280.000000pt" height="1238.000000pt" viewBox="0 0 1280.000000 1238.000000"
 preserveAspectRatio="xMidYMid meet">
<metadata>
Created by potrace 1.15, written by Peter Selinger 2001-2017
</metadata>
<g transform="translate(0.000000,1238.000000) scale(0.100000,-0.100000)"
fill="red" stroke="none">
<path d="M6865 12373 c-38 -1 -311 -7 -605 -13 -2995 -60 -3808 -137 -4247
-399 -189 -112 -440 -364 -556 -556 -308 -513 -346 -1663 -277 -8229 10 -940
11 -980 30 -1016 11 -22 36 -51 57 -67 32 -25 45 -28 107 -28 52 0 78 5 98 18
15 10 355 422 755 915 1012 1248 2166 2666 2748 3377 269 330 498 612 508 627
24 38 32 108 18 151 -17 50 -46 84 -92 107 -37 19 -62 20 -873 20 -459 0 -837
4 -840 8 -3 5 -6 589 -8 1298 -3 1302 -1 1413 33 1501 22 58 362 111 959 150
222 14 448 17 1390 18 1225 2 1153 -1 1207 57 55 58 53 28 62 989 10 958 10
962 -40 1016 -13 14 -42 34 -64 44 -40 19 -128 22 -370 12z"/>
<path d="M11282 12363 c-12 -2 -44 -25 -72 -51 -27 -26 -439 -528 -916 -1117
-945 -1165 -2033 -2502 -2658 -3265 -219 -267 -407 -505 -418 -529 -40 -86 -5
-184 83 -236 33 -20 55 -20 876 -23 l842 -3 3 -617 c8 -1611 2 -1989 -33
-2154 -11 -47 -11 -48 -72 -67 -184 -56 -570 -98 -1137 -121 -285 -12 -1229
-18 -1866 -11 -376 4 -393 3 -430 -16 -22 -11 -52 -39 -69 -62 l-29 -42 -7
-227 c-4 -125 -9 -544 -11 -932 l-3 -705 25 -43 c15 -27 42 -54 69 -70 l43
-25 418 6 c831 13 2037 46 2650 73 1416 60 1904 150 2248 412 103 79 324 308
390 405 30 42 71 116 93 162 260 563 295 1799 229 8135 -10 970 -11 985 -31
1028 -36 74 -127 115 -217 95z"/>
</g>
</svg>
